<svg width="72" height="13" viewBox="0 0 72 13" fill="none" xmlns="http://www.w3.org/2000/svg">
<g filter="url(#filter0_i_688_2053)">
<path d="M5.80838 0C4.52386 0 3.29195 0.513617 2.38365 1.42786C1.47536 2.3421 0.965088 3.58207 0.965088 4.875V8.125C0.965088 9.41793 1.47536 10.6579 2.38365 11.5721C3.29195 12.4864 4.52386 13 5.80838 13H68.4741C70.5793 13 72 11.9145 72 9.75H7.4228C6.56646 9.75 5.74519 9.40759 5.13966 8.7981C4.53413 8.18861 4.19395 7.36195 4.19395 6.5C4.19395 5.63805 4.53413 4.81139 5.13966 4.2019C5.74519 3.59241 6.56646 3.25 7.4228 3.25H72V0H5.80838Z" fill="#4B7FD6"/>
</g>
<defs>
<filter id="filter0_i_688_2053" x="0.965088" y="0" width="71.0349" height="13.075" filterUnits="userSpaceOnUse" color-interpolation-filters="sRGB">
<feFlood flood-opacity="0" result="BackgroundImageFix"/>
<feBlend mode="normal" in="SourceGraphic" in2="BackgroundImageFix" result="shape"/>
<feColorMatrix in="SourceAlpha" type="matrix" values="0 0 0 0 0 0 0 0 0 0 0 0 0 0 0 0 0 0 127 0" result="hardAlpha"/>
<feOffset dy="0.075"/>
<feGaussianBlur stdDeviation="0.1125"/>
<feComposite in2="hardAlpha" operator="arithmetic" k2="-1" k3="1"/>
<feColorMatrix type="matrix" values="0 0 0 0 0.113725 0 0 0 0 0.435294 0 0 0 0 0.439216 0 0 0 1 0"/>
<feBlend mode="normal" in2="shape" result="effect1_innerShadow_688_2053"/>
</filter>
</defs>
</svg>
