<svg width="20" height="20" viewBox="0 0 20 20" fill="none" xmlns="http://www.w3.org/2000/svg">
    <path d="M18.089 10.5444V9.44844L19.5015 8.24503C19.7619 8.02158 19.9328 7.7157 19.9839 7.38144C20.0351 7.04719 19.9632 6.7061 19.7811 6.41843L18.0448 3.55318C17.9158 3.33561 17.7303 3.15489 17.5069 3.02917C17.2835 2.90344 17.0301 2.83712 16.772 2.83686C16.6121 2.83567 16.4531 2.85987 16.3012 2.9085L14.5134 3.49587C14.2048 3.29617 13.8828 3.1167 13.5496 2.95864L13.1744 1.15353C13.1072 0.823741 12.9229 0.527499 12.6539 0.316661C12.3849 0.105822 12.0483 -0.00617905 11.703 0.000263196H8.25991C7.91464 -0.00617905 7.57804 0.105822 7.30904 0.316661C7.04004 0.527499 6.85577 0.823741 6.78849 1.15353L6.41328 2.95864C6.07775 3.11666 5.75333 3.29613 5.44215 3.49587L3.69117 2.87984C3.53762 2.84089 3.37862 2.82638 3.22031 2.83686C2.96228 2.83712 2.70886 2.90344 2.48546 3.02917C2.26207 3.15489 2.07655 3.33561 1.94754 3.55318L0.211271 6.41843C0.0395469 6.70567 -0.0242649 7.0421 0.0307642 7.3701C0.0857933 7.69811 0.256239 7.99728 0.51291 8.21638L1.9034 9.4556V10.5516L0.51291 11.755C0.248989 11.9756 0.0738812 12.2801 0.0186614 12.6145C-0.0365585 12.9489 0.0316813 13.2915 0.211271 13.5816L1.94754 16.4468C2.07655 16.6644 2.26207 16.8451 2.48546 16.9708C2.70886 17.0966 2.96228 17.1629 3.22031 17.1631C3.38022 17.1643 3.53925 17.1401 3.69117 17.0915L5.47893 16.5041C5.78759 16.7038 6.10956 16.8833 6.44271 17.0414L6.81792 18.8465C6.8852 19.1763 7.06946 19.4725 7.33847 19.6833C7.60747 19.8942 7.94407 20.0062 8.28934 19.9997H11.7619C12.1071 20.0062 12.4437 19.8942 12.7127 19.6833C12.9817 19.4725 13.166 19.1763 13.2333 18.8465L13.6085 17.0414C13.944 16.8833 14.2684 16.7039 14.5796 16.5041L16.36 17.0915C16.512 17.1401 16.671 17.1643 16.8309 17.1631C17.0889 17.1629 17.3424 17.0966 17.5657 16.9708C17.7891 16.8451 17.9747 16.6644 18.1037 16.4468L19.7811 13.5816C19.9528 13.2943 20.0166 12.9579 19.9616 12.6299C19.9066 12.3019 19.7361 12.0027 19.4794 11.7836L18.089 10.5444ZM16.772 15.7305L14.2486 14.8996C13.6578 15.3868 12.9827 15.7676 12.2548 16.0242L11.7324 18.5958H8.25991L7.73755 16.0529C7.0154 15.7889 6.34392 15.4088 5.75114 14.9282L3.22031 15.7305L1.48404 12.8653L3.48517 11.1461C3.34913 10.4046 3.34913 9.64553 3.48517 8.90404L1.48404 7.13475L3.22031 4.26949L5.74379 5.10042C6.33451 4.61325 7.00965 4.23243 7.73755 3.9758L8.25991 1.40424H11.7324L12.2548 3.94715C12.9769 4.21106 13.6484 4.59122 14.2412 5.07176L16.772 4.26949L18.5083 7.13475L16.5072 8.8539C16.6432 9.59538 16.6432 10.3545 16.5072 11.096L18.5083 12.8653L16.772 15.7305Z" fill="#FEFEFE"/>
</svg>
