<svg width="38" height="38" viewBox="0 0 38 38" fill="none" xmlns="http://www.w3.org/2000/svg">
    <rect width="38" height="38" rx="10" fill="#22B07D"/>
    <path d="M14.152 11.383L14.167 11.374L14.236 11.3335C14.6647 11.0909 15.1098 10.8784 15.568 10.6975C16.465 10.345 17.68 10 19 10C20.32 10 21.535 10.345 22.4335 10.6975C22.8912 10.8784 23.3358 11.0909 23.764 11.3335C23.7955 11.3515 23.818 11.3635 23.8315 11.374L23.8465 11.383H23.848C24.0158 11.4851 24.217 11.5173 24.4082 11.4727C24.5995 11.4281 24.7657 11.3102 24.871 11.1444C24.9763 10.9786 25.0123 10.778 24.9714 10.5859C24.9304 10.3938 24.8158 10.2255 24.652 10.117H24.6505L24.6475 10.114L24.64 10.1095L24.613 10.093C24.4727 10.0091 24.3302 9.92911 24.1855 9.853C23.7948 9.64778 23.3932 9.464 22.9825 9.3025C21.9775 8.905 20.5675 8.5 19 8.5C17.431 8.5 16.0225 8.905 15.0175 9.3025C14.4879 9.5111 13.9736 9.75671 13.4785 10.0375C13.4478 10.0557 13.4173 10.0742 13.387 10.093L13.36 10.108L13.3525 10.114L13.3495 10.1155C13.1814 10.2219 13.0625 10.3907 13.0189 10.5848C12.9753 10.7789 13.0106 10.9824 13.117 11.1505C13.2234 11.3186 13.3922 11.4375 13.5863 11.4811C13.7804 11.5247 13.9839 11.4894 14.152 11.383ZM13 13C12.2044 13 11.4413 13.3161 10.8787 13.8787C10.3161 14.4413 10 15.2044 10 16V22C10 22.7956 10.3161 23.5587 10.8787 24.1213C11.4413 24.6839 12.2044 25 13 25H19C19.7956 25 20.5587 24.6839 21.1213 24.1213C21.6839 23.5587 22 22.7956 22 22V16C22 15.2044 21.6839 14.4413 21.1213 13.8787C20.5587 13.3161 19.7956 13 19 13H13ZM28 15.25C28 15.1107 27.9612 14.9742 27.888 14.8557C27.8148 14.7372 27.71 14.6415 27.5854 14.5792C27.4608 14.5169 27.3214 14.4905 27.1826 14.503C27.0439 14.5155 26.9114 14.5664 26.8 14.65L23.8 16.9C23.7069 16.9699 23.6313 17.0604 23.5792 17.1646C23.5271 17.2687 23.5 17.3836 23.5 17.5V20.5C23.5 20.6164 23.5271 20.7313 23.5792 20.8354C23.6313 20.9396 23.7069 21.0301 23.8 21.1L26.8 23.35C26.9114 23.4336 27.0439 23.4845 27.1826 23.497C27.3214 23.5095 27.4608 23.4831 27.5854 23.4208C27.71 23.3585 27.8148 23.2628 27.888 23.1443C27.9612 23.0258 28 22.8893 28 22.75V15.25ZM14.1535 26.6185L14.152 26.617C13.9842 26.5149 13.783 26.4827 13.5918 26.5273C13.4005 26.5719 13.2343 26.6898 13.129 26.8556C13.0237 27.0214 12.9877 27.222 13.0286 27.4141C13.0696 27.6062 13.1842 27.7745 13.348 27.883H13.3495L13.3525 27.886L13.36 27.8905L13.387 27.907C13.408 27.922 13.4395 27.9385 13.4785 27.9625C13.558 28.0075 13.6705 28.072 13.8145 28.1485C14.101 28.2985 14.512 28.498 15.0175 28.6975C16.0225 29.0935 17.4325 29.5 19 29.5C20.569 29.5 21.9775 29.095 22.9825 28.6975C23.5121 28.4889 24.0264 28.2433 24.5215 27.9625L24.613 27.907L24.64 27.892L24.6475 27.886L24.6505 27.8845H24.652C24.8201 27.7779 24.9389 27.6089 24.9824 27.4146C25.0258 27.2204 24.9904 27.0168 24.8837 26.8488C24.7771 26.6807 24.6081 26.5618 24.4139 26.5184C24.2196 26.4749 24.0161 26.5104 23.848 26.617L23.833 26.6275L23.764 26.6665C23.3353 26.9091 22.8902 27.1216 22.432 27.3025C21.535 27.655 20.32 28 19 28C17.68 28 16.465 27.655 15.5665 27.3025C15.1088 27.1215 14.6643 26.909 14.236 26.6665C14.2134 26.6532 14.1909 26.6397 14.1685 26.626L14.1535 26.6185Z" fill="#FEFEFE"/>
</svg>
